<mxfile host="app.diagrams.net" agent="Mozilla/5.0 (Windows NT 10.0; Win64; x64) AppleWebKit/537.36 (KHTML, like Gecko) Chrome/133.0.0.0 Safari/537.36 OPR/118.0.0.0 (Edition std-2)" version="26.2.14">
  <diagram name="PÃ¡gina-1" id="U0qIJbOwKPsGLGn5asgt">
    <mxGraphModel dx="1385" dy="764" grid="1" gridSize="10" guides="1" tooltips="1" connect="1" arrows="1" fold="1" page="1" pageScale="1" pageWidth="827" pageHeight="1169" math="0" shadow="0">
      <root>
        <mxCell id="0" />
        <mxCell id="1" parent="0" />
        <mxCell id="qbqykRNSQZ6YkzVS6MYt-2" value="Cliente" style="swimlane;whiteSpace=wrap;html=1;flipV=0;flipH=1;" parent="1" vertex="1">
          <mxGeometry x="570" y="320" width="200" height="60" as="geometry">
            <mxRectangle x="310" y="190" width="140" height="30" as="alternateBounds" />
          </mxGeometry>
        </mxCell>
        <mxCell id="qbqykRNSQZ6YkzVS6MYt-3" value="- Nome" style="text;strokeColor=none;align=center;fillColor=none;html=1;verticalAlign=middle;whiteSpace=wrap;rounded=0;fontFamily=Helvetica;fontSize=12;fontColor=default;" parent="qbqykRNSQZ6YkzVS6MYt-2" vertex="1">
          <mxGeometry x="10" y="30" width="60" height="30" as="geometry" />
        </mxCell>
        <mxCell id="2GIj8DnyTB_6xolZO_Aa-7" style="edgeStyle=orthogonalEdgeStyle;rounded=0;orthogonalLoop=1;jettySize=auto;html=1;entryX=0.5;entryY=0;entryDx=0;entryDy=0;fontFamily=Helvetica;fontSize=12;fontColor=default;endArrow=diamond;startFill=0;endFill=1;" edge="1" parent="1" source="qbqykRNSQZ6YkzVS6MYt-4" target="2GIj8DnyTB_6xolZO_Aa-1">
          <mxGeometry relative="1" as="geometry">
            <Array as="points">
              <mxPoint x="120" y="230" />
              <mxPoint x="120" y="230" />
            </Array>
          </mxGeometry>
        </mxCell>
        <mxCell id="2GIj8DnyTB_6xolZO_Aa-18" style="edgeStyle=orthogonalEdgeStyle;rounded=0;orthogonalLoop=1;jettySize=auto;html=1;entryX=0.5;entryY=0;entryDx=0;entryDy=0;fontFamily=Helvetica;fontSize=12;fontColor=default;endArrow=none;startFill=0;" edge="1" parent="1" source="qbqykRNSQZ6YkzVS6MYt-4" target="qbqykRNSQZ6YkzVS6MYt-2">
          <mxGeometry relative="1" as="geometry">
            <Array as="points">
              <mxPoint x="150" y="240" />
              <mxPoint x="670" y="240" />
            </Array>
          </mxGeometry>
        </mxCell>
        <mxCell id="qbqykRNSQZ6YkzVS6MYt-4" value="Cafeteria" style="swimlane;whiteSpace=wrap;html=1;flipV=0;flipH=1;" parent="1" vertex="1">
          <mxGeometry x="20" y="20" width="200" height="190" as="geometry">
            <mxRectangle x="310" y="190" width="140" height="30" as="alternateBounds" />
          </mxGeometry>
        </mxCell>
        <mxCell id="qbqykRNSQZ6YkzVS6MYt-5" value="- cliente :Cliente" style="text;strokeColor=none;align=center;fillColor=none;html=1;verticalAlign=middle;whiteSpace=wrap;rounded=0;fontFamily=Helvetica;fontSize=12;fontColor=default;" parent="qbqykRNSQZ6YkzVS6MYt-4" vertex="1">
          <mxGeometry x="10" y="30" width="90" height="30" as="geometry" />
        </mxCell>
        <mxCell id="qbqykRNSQZ6YkzVS6MYt-6" value="-pedido : Pedido" style="text;strokeColor=none;align=center;fillColor=none;html=1;verticalAlign=middle;whiteSpace=wrap;rounded=0;fontFamily=Helvetica;fontSize=12;fontColor=default;" parent="qbqykRNSQZ6YkzVS6MYt-4" vertex="1">
          <mxGeometry x="10" y="50" width="100" height="30" as="geometry" />
        </mxCell>
        <mxCell id="qbqykRNSQZ6YkzVS6MYt-8" value="-cardapio : Cardapio" style="text;strokeColor=none;align=center;fillColor=none;html=1;verticalAlign=middle;whiteSpace=wrap;rounded=0;fontFamily=Helvetica;fontSize=12;fontColor=default;" parent="qbqykRNSQZ6YkzVS6MYt-4" vertex="1">
          <mxGeometry x="10" y="70" width="120" height="30" as="geometry" />
        </mxCell>
        <mxCell id="qbqykRNSQZ6YkzVS6MYt-9" value="" style="endArrow=none;html=1;rounded=0;fontFamily=Helvetica;fontSize=12;fontColor=default;" parent="qbqykRNSQZ6YkzVS6MYt-4" edge="1">
          <mxGeometry width="50" height="50" relative="1" as="geometry">
            <mxPoint y="100" as="sourcePoint" />
            <mxPoint x="200" y="100" as="targetPoint" />
          </mxGeometry>
        </mxCell>
        <mxCell id="qbqykRNSQZ6YkzVS6MYt-10" value="+abrirMenu()" style="text;strokeColor=none;align=center;fillColor=none;html=1;verticalAlign=middle;whiteSpace=wrap;rounded=0;fontFamily=Helvetica;fontSize=12;fontColor=default;" parent="qbqykRNSQZ6YkzVS6MYt-4" vertex="1">
          <mxGeometry x="-10" y="100" width="120" height="30" as="geometry" />
        </mxCell>
        <mxCell id="qbqykRNSQZ6YkzVS6MYt-19" style="edgeStyle=orthogonalEdgeStyle;rounded=0;orthogonalLoop=1;jettySize=auto;html=1;exitX=0;exitY=0.5;exitDx=0;exitDy=0;entryX=1;entryY=0.5;entryDx=0;entryDy=0;fontFamily=Helvetica;fontSize=12;fontColor=default;endArrow=diamond;endFill=0;" parent="1" source="qbqykRNSQZ6YkzVS6MYt-11" target="qbqykRNSQZ6YkzVS6MYt-4" edge="1">
          <mxGeometry relative="1" as="geometry" />
        </mxCell>
        <mxCell id="qbqykRNSQZ6YkzVS6MYt-11" value="Cardapio" style="swimlane;whiteSpace=wrap;html=1;flipV=0;flipH=1;" parent="1" vertex="1">
          <mxGeometry x="270" y="20" width="200" height="190" as="geometry">
            <mxRectangle x="310" y="190" width="140" height="30" as="alternateBounds" />
          </mxGeometry>
        </mxCell>
        <mxCell id="qbqykRNSQZ6YkzVS6MYt-12" value="- comida" style="text;strokeColor=none;align=center;fillColor=none;html=1;verticalAlign=middle;whiteSpace=wrap;rounded=0;fontFamily=Helvetica;fontSize=12;fontColor=default;" parent="qbqykRNSQZ6YkzVS6MYt-11" vertex="1">
          <mxGeometry y="30" width="100" height="30" as="geometry" />
        </mxCell>
        <mxCell id="qbqykRNSQZ6YkzVS6MYt-14" value="-bebida" style="text;strokeColor=none;align=center;fillColor=none;html=1;verticalAlign=middle;whiteSpace=wrap;rounded=0;fontFamily=Helvetica;fontSize=12;fontColor=default;" parent="qbqykRNSQZ6YkzVS6MYt-11" vertex="1">
          <mxGeometry y="50" width="95" height="30" as="geometry" />
        </mxCell>
        <mxCell id="qbqykRNSQZ6YkzVS6MYt-15" value="" style="endArrow=none;html=1;rounded=0;fontFamily=Helvetica;fontSize=12;fontColor=default;" parent="qbqykRNSQZ6YkzVS6MYt-11" edge="1">
          <mxGeometry width="50" height="50" relative="1" as="geometry">
            <mxPoint y="100" as="sourcePoint" />
            <mxPoint x="200" y="100" as="targetPoint" />
          </mxGeometry>
        </mxCell>
        <mxCell id="qbqykRNSQZ6YkzVS6MYt-16" value="+mostrarComida()" style="text;strokeColor=none;align=center;fillColor=none;html=1;verticalAlign=middle;whiteSpace=wrap;rounded=0;fontFamily=Helvetica;fontSize=12;fontColor=default;" parent="qbqykRNSQZ6YkzVS6MYt-11" vertex="1">
          <mxGeometry y="100" width="120" height="30" as="geometry" />
        </mxCell>
        <mxCell id="qbqykRNSQZ6YkzVS6MYt-17" value="+mostrarBebida()" style="text;strokeColor=none;align=center;fillColor=none;html=1;verticalAlign=middle;whiteSpace=wrap;rounded=0;fontFamily=Helvetica;fontSize=12;fontColor=default;" parent="qbqykRNSQZ6YkzVS6MYt-11" vertex="1">
          <mxGeometry y="120" width="120" height="30" as="geometry" />
        </mxCell>
        <mxCell id="qbqykRNSQZ6YkzVS6MYt-20" value="ItemCardapio" style="swimlane;whiteSpace=wrap;html=1;flipV=0;flipH=1;" parent="1" vertex="1">
          <mxGeometry x="520" y="20" width="200" height="100" as="geometry">
            <mxRectangle x="310" y="190" width="140" height="30" as="alternateBounds" />
          </mxGeometry>
        </mxCell>
        <mxCell id="qbqykRNSQZ6YkzVS6MYt-21" value="-nome: String" style="text;strokeColor=none;align=center;fillColor=none;html=1;verticalAlign=middle;whiteSpace=wrap;rounded=0;fontFamily=Helvetica;fontSize=12;fontColor=default;" parent="qbqykRNSQZ6YkzVS6MYt-20" vertex="1">
          <mxGeometry y="30" width="100" height="30" as="geometry" />
        </mxCell>
        <mxCell id="qbqykRNSQZ6YkzVS6MYt-27" style="edgeStyle=orthogonalEdgeStyle;rounded=0;orthogonalLoop=1;jettySize=auto;html=1;fontFamily=Helvetica;fontSize=12;fontColor=default;endArrow=diamond;endFill=0;" parent="qbqykRNSQZ6YkzVS6MYt-20" source="qbqykRNSQZ6YkzVS6MYt-22" edge="1">
          <mxGeometry relative="1" as="geometry">
            <mxPoint x="-50" y="65" as="targetPoint" />
          </mxGeometry>
        </mxCell>
        <mxCell id="qbqykRNSQZ6YkzVS6MYt-22" value="-preco :double" style="text;strokeColor=none;align=center;fillColor=none;html=1;verticalAlign=middle;whiteSpace=wrap;rounded=0;fontFamily=Helvetica;fontSize=12;fontColor=default;" parent="qbqykRNSQZ6YkzVS6MYt-20" vertex="1">
          <mxGeometry x="5" y="50" width="95" height="30" as="geometry" />
        </mxCell>
        <mxCell id="qbqykRNSQZ6YkzVS6MYt-26" value="-tipo: String" style="text;strokeColor=none;align=center;fillColor=none;html=1;verticalAlign=middle;whiteSpace=wrap;rounded=0;fontFamily=Helvetica;fontSize=12;fontColor=default;" parent="qbqykRNSQZ6YkzVS6MYt-20" vertex="1">
          <mxGeometry y="70" width="95" height="30" as="geometry" />
        </mxCell>
        <mxCell id="2GIj8DnyTB_6xolZO_Aa-1" value="Pedido" style="swimlane;whiteSpace=wrap;html=1;flipV=0;flipH=1;" vertex="1" parent="1">
          <mxGeometry x="20" y="280" width="200" height="190" as="geometry">
            <mxRectangle x="310" y="190" width="140" height="30" as="alternateBounds" />
          </mxGeometry>
        </mxCell>
        <mxCell id="2GIj8DnyTB_6xolZO_Aa-2" value="- itens[] : ItemPedido" style="text;strokeColor=none;align=center;fillColor=none;html=1;verticalAlign=middle;whiteSpace=wrap;rounded=0;fontFamily=Helvetica;fontSize=12;fontColor=default;" vertex="1" parent="2GIj8DnyTB_6xolZO_Aa-1">
          <mxGeometry x="10" y="30" width="120" height="30" as="geometry" />
        </mxCell>
        <mxCell id="2GIj8DnyTB_6xolZO_Aa-3" value="-quantidade : Int" style="text;strokeColor=none;align=center;fillColor=none;html=1;verticalAlign=middle;whiteSpace=wrap;rounded=0;fontFamily=Helvetica;fontSize=12;fontColor=default;" vertex="1" parent="2GIj8DnyTB_6xolZO_Aa-1">
          <mxGeometry x="10" y="50" width="100" height="30" as="geometry" />
        </mxCell>
        <mxCell id="2GIj8DnyTB_6xolZO_Aa-4" value="-valorTotal : double" style="text;strokeColor=none;align=center;fillColor=none;html=1;verticalAlign=middle;whiteSpace=wrap;rounded=0;fontFamily=Helvetica;fontSize=12;fontColor=default;" vertex="1" parent="2GIj8DnyTB_6xolZO_Aa-1">
          <mxGeometry x="10" y="70" width="120" height="30" as="geometry" />
        </mxCell>
        <mxCell id="2GIj8DnyTB_6xolZO_Aa-5" value="" style="endArrow=none;html=1;rounded=0;fontFamily=Helvetica;fontSize=12;fontColor=default;" edge="1" parent="2GIj8DnyTB_6xolZO_Aa-1">
          <mxGeometry width="50" height="50" relative="1" as="geometry">
            <mxPoint y="100" as="sourcePoint" />
            <mxPoint x="200" y="100" as="targetPoint" />
          </mxGeometry>
        </mxCell>
        <mxCell id="2GIj8DnyTB_6xolZO_Aa-6" value="+adicionarPedido()" style="text;strokeColor=none;align=center;fillColor=none;html=1;verticalAlign=middle;whiteSpace=wrap;rounded=0;fontFamily=Helvetica;fontSize=12;fontColor=default;" vertex="1" parent="2GIj8DnyTB_6xolZO_Aa-1">
          <mxGeometry y="100" width="130" height="30" as="geometry" />
        </mxCell>
        <mxCell id="2GIj8DnyTB_6xolZO_Aa-8" value="+LimparPedido()" style="text;strokeColor=none;align=center;fillColor=none;html=1;verticalAlign=middle;whiteSpace=wrap;rounded=0;fontFamily=Helvetica;fontSize=12;fontColor=default;" vertex="1" parent="2GIj8DnyTB_6xolZO_Aa-1">
          <mxGeometry y="120" width="120" height="30" as="geometry" />
        </mxCell>
        <mxCell id="2GIj8DnyTB_6xolZO_Aa-9" value="+mostrarPedido()" style="text;strokeColor=none;align=center;fillColor=none;html=1;verticalAlign=middle;whiteSpace=wrap;rounded=0;fontFamily=Helvetica;fontSize=12;fontColor=default;" vertex="1" parent="2GIj8DnyTB_6xolZO_Aa-1">
          <mxGeometry y="140" width="130" height="30" as="geometry" />
        </mxCell>
        <mxCell id="2GIj8DnyTB_6xolZO_Aa-10" value="+finalizarPedido()" style="text;strokeColor=none;align=center;fillColor=none;html=1;verticalAlign=middle;whiteSpace=wrap;rounded=0;fontFamily=Helvetica;fontSize=12;fontColor=default;" vertex="1" parent="2GIj8DnyTB_6xolZO_Aa-1">
          <mxGeometry y="160" width="130" height="30" as="geometry" />
        </mxCell>
        <mxCell id="2GIj8DnyTB_6xolZO_Aa-19" style="edgeStyle=orthogonalEdgeStyle;rounded=0;orthogonalLoop=1;jettySize=auto;html=1;entryX=1;entryY=1;entryDx=0;entryDy=0;fontFamily=Helvetica;fontSize=12;fontColor=default;endArrow=none;startFill=0;" edge="1" parent="1" source="2GIj8DnyTB_6xolZO_Aa-11" target="qbqykRNSQZ6YkzVS6MYt-26">
          <mxGeometry relative="1" as="geometry">
            <Array as="points">
              <mxPoint x="500" y="220" />
              <mxPoint x="615" y="220" />
            </Array>
          </mxGeometry>
        </mxCell>
        <mxCell id="2GIj8DnyTB_6xolZO_Aa-11" value="ItemPedido" style="swimlane;whiteSpace=wrap;html=1;flipV=0;flipH=1;" vertex="1" parent="1">
          <mxGeometry x="310" y="320" width="200" height="100" as="geometry">
            <mxRectangle x="310" y="190" width="140" height="30" as="alternateBounds" />
          </mxGeometry>
        </mxCell>
        <mxCell id="2GIj8DnyTB_6xolZO_Aa-12" value="-item: String" style="text;strokeColor=none;align=center;fillColor=none;html=1;verticalAlign=middle;whiteSpace=wrap;rounded=0;fontFamily=Helvetica;fontSize=12;fontColor=default;" vertex="1" parent="2GIj8DnyTB_6xolZO_Aa-11">
          <mxGeometry y="30" width="100" height="30" as="geometry" />
        </mxCell>
        <mxCell id="2GIj8DnyTB_6xolZO_Aa-17" style="edgeStyle=orthogonalEdgeStyle;rounded=0;orthogonalLoop=1;jettySize=auto;html=1;fontFamily=Helvetica;fontSize=12;fontColor=default;endArrow=diamond;endFill=0;" edge="1" parent="2GIj8DnyTB_6xolZO_Aa-11" source="2GIj8DnyTB_6xolZO_Aa-14">
          <mxGeometry relative="1" as="geometry">
            <mxPoint x="-90" y="65" as="targetPoint" />
          </mxGeometry>
        </mxCell>
        <mxCell id="2GIj8DnyTB_6xolZO_Aa-14" value="-quantidade: Int" style="text;strokeColor=none;align=center;fillColor=none;html=1;verticalAlign=middle;whiteSpace=wrap;rounded=0;fontFamily=Helvetica;fontSize=12;fontColor=default;" vertex="1" parent="2GIj8DnyTB_6xolZO_Aa-11">
          <mxGeometry x="10" y="50" width="95" height="30" as="geometry" />
        </mxCell>
      </root>
    </mxGraphModel>
  </diagram>
</mxfile>
